<?xml version="1.0" standalone="no"?>
<!DOCTYPE svg PUBLIC "-//W3C//DTD SVG 20010904//EN"
 "http://www.w3.org/TR/2001/REC-SVG-20010904/DTD/svg10.dtd">
<svg version="1.0" xmlns="http://www.w3.org/2000/svg"
 width="512.000000pt" height="512.000000pt" viewBox="0 0 512.000000 512.000000"
 preserveAspectRatio="xMidYMid meet">

<g transform="translate(0.000000,512.000000) scale(0.100000,-0.100000)"
fill="#000000" stroke="none">
<path d="M1570 4780 c-246 -32 -468 -221 -581 -492 -60 -146 -74 -226 -73
-423 1 -162 3 -190 27 -279 76 -282 262 -510 484 -592 26 -9 51 -20 55 -23 4
-4 -4 -501 -17 -1106 -31 -1399 -31 -1386 -3 -1437 75 -132 289 -106 327 40 6
25 1 448 -17 1263 l-27 1225 86 28 c481 152 703 834 444 1362 -146 299 -427
471 -705 434z"/>
<path d="M3120 4729 c-42 -9 -77 -47 -84 -92 -3 -17 -19 -959 -35 -2091 -33
-2242 -34 -2094 22 -2154 68 -73 188 -73 258 1 54 56 52 -83 19 2165 -20 1366
-34 2086 -41 2104 -22 54 -76 80 -139 67z"/>
<path d="M3618 4712 c-16 -9 -35 -31 -43 -49 -15 -31 -8 -191 95 -2108 60
-1141 115 -2087 121 -2102 59 -157 293 -144 339 18 6 21 -43 660 -160 2077
-94 1126 -172 2062 -176 2081 -9 52 -62 101 -110 101 -22 0 -51 -8 -66 -18z"/>
</g>
</svg>
