<?xml version="1.0" standalone="no"?>
<!DOCTYPE svg PUBLIC "-//W3C//DTD SVG 20010904//EN"
 "http://www.w3.org/TR/2001/REC-SVG-20010904/DTD/svg10.dtd">
<svg version="1.0" xmlns="http://www.w3.org/2000/svg"
 width="32.000000pt" height="32.000000pt" viewBox="0 0 32.000000 32.000000"
 preserveAspectRatio="xMidYMid meet">

<g transform="translate(0.000000,32.000000) scale(0.100000,-0.100000)"
fill="#000000" stroke="none">
<path d="M75 310 c-23 -6 -16 -7 30 -7 89 2 172 -5 187 -14 13 -9 11 -10 -30
-14 -153 -16 -240 -11 -234 14 1 7 -2 10 -8 6 -14 -9 6 -35 26 -35 17 0 17
-13 3 -63 -10 -36 -8 -41 26 -83 36 -43 36 -46 20 -64 -32 -35 -13 -50 65 -50
78 0 97 15 65 50 -15 16 -15 22 -5 35 11 13 9 13 -24 0 -31 -13 -40 -13 -69
-1 -35 14 -72 76 -50 83 5 2 26 12 46 22 35 18 37 18 82 -3 42 -20 45 -23 39
-51 l-6 -30 21 27 c19 24 21 32 12 65 -15 54 -14 58 16 72 31 14 20 32 -24 36
-103 11 -162 12 -188 5z m175 -65 c0 -12 -17 -15 -90 -15 -65 0 -90 3 -90 13
0 8 26 13 90 15 75 2 90 -1 90 -13z m-144 -232 c-10 -10 -19 5 -10 18 6 11 8
11 12 0 2 -7 1 -15 -2 -18z m94 12 c0 -11 -11 -15 -40 -15 -29 0 -40 4 -40 15
0 11 11 15 40 15 29 0 40 -4 40 -15z m30 -6 c0 -5 -4 -9 -10 -9 -5 0 -10 7
-10 16 0 8 5 12 10 9 6 -3 10 -10 10 -16z"/>
<path d="M110 160 c0 -5 5 -10 10 -10 6 0 10 5 10 10 0 6 -4 10 -10 10 -5 0
-10 -4 -10 -10z"/>
<path d="M190 160 c0 -5 5 -10 10 -10 6 0 10 5 10 10 0 6 -4 10 -10 10 -5 0
-10 -4 -10 -10z"/>
</g>
</svg>
